<svg width="242" height="35" viewBox="0 0 242 35" fill="none" xmlns="http://www.w3.org/2000/svg">
<path d="M21.25 5.00504C15.1094 5.00504 9.91406 9.0278 8.14844 14.5737C10.7734 13.2458 13.7344 12.5038 16.875 12.5038H23.75C24.4375 12.5038 25 13.0662 25 13.7536C25 14.441 24.4375 15.0034 23.75 15.0034H22.5H16.875C15.5781 15.0034 14.3203 15.1518 13.1094 15.4252C11.0859 15.886 9.20312 16.7062 7.53125 17.8232C2.99219 20.8461 0 26.0093 0 31.8755V33.1253C0 34.1642 0.835938 35 1.875 35C2.91406 35 3.75 34.1642 3.75 33.1253V31.8755C3.75 28.0715 5.36719 24.6502 7.95312 22.2521C9.5 28.1496 14.8672 32.5004 21.25 32.5004H21.3281C31.6484 32.4457 40 22.2756 40 9.73862C40 6.41105 39.4141 3.24752 38.3516 0.39644C38.1484 -0.142532 37.3594 -0.119099 37.0859 0.388628C35.6172 3.13817 32.7109 5.00504 29.375 5.00504H21.25Z" fill="#9CAF88"/>
<path d="M61.9013 2.5L69.0036 24.9639H69.2762L76.3927 2.5H83.2797L73.1501 32.0669H65.144L55 2.5H61.9013Z" fill="white"/>
<path d="M94.2595 32.5C91.9925 32.5 90.0412 32.038 88.4055 31.114C86.7794 30.1805 85.5264 28.8619 84.6464 27.1583C83.7664 25.4451 83.3264 23.4192 83.3264 21.0804C83.3264 18.7993 83.7664 16.7974 84.6464 15.0746C85.5264 13.3518 86.7651 12.0091 88.3625 11.0467C89.9695 10.0842 91.8538 9.60298 94.0156 9.60298C95.4695 9.60298 96.823 9.83879 98.076 10.3104C99.3387 10.7724 100.439 11.4702 101.376 12.4038C102.323 13.3373 103.06 14.5115 103.586 15.9264C104.112 17.3316 104.375 18.9774 104.375 20.8638V22.5529H85.7655V18.7416H98.6213C98.6213 17.8561 98.43 17.0717 98.0473 16.3884C97.6647 15.705 97.1339 15.1708 96.4547 14.7859C95.7852 14.3912 95.0056 14.1939 94.116 14.1939C93.1882 14.1939 92.3656 14.4105 91.6482 14.8436C90.9403 15.2671 90.3856 15.8397 89.9838 16.5616C89.5821 17.2738 89.3764 18.0679 89.3669 18.9437V22.5674C89.3669 23.6646 89.5677 24.6126 89.9695 25.4115C90.3808 26.2103 90.9595 26.8263 91.7056 27.2594C92.4517 27.6925 93.3364 27.909 94.3599 27.909C95.0391 27.909 95.6608 27.8128 96.2252 27.6203C96.7895 27.4278 97.2726 27.1391 97.6743 26.7541C98.076 26.3691 98.3821 25.8975 98.5926 25.3393L104.246 25.7146C103.959 27.0813 103.37 28.2748 102.481 29.295C101.601 30.3056 100.463 31.0948 99.066 31.6627C97.6791 32.2209 96.0769 32.5 94.2595 32.5Z" fill="white"/>
<path d="M108.363 32.0669V9.89172H114.289V13.7608H114.519C114.92 12.3845 115.595 11.345 116.542 10.6424C117.489 9.93022 118.579 9.57411 119.813 9.57411C120.119 9.57411 120.449 9.59336 120.803 9.63186C121.157 9.67036 121.468 9.72329 121.736 9.79066V15.2478C121.449 15.1612 121.052 15.0842 120.545 15.0168C120.038 14.9495 119.574 14.9158 119.153 14.9158C118.254 14.9158 117.451 15.1131 116.743 15.5077C116.044 15.8927 115.49 16.4317 115.078 17.1246C114.677 17.8176 114.476 18.6165 114.476 19.5212V32.0669H108.363Z" fill="white"/>
<path d="M131.991 32.4278C130.317 32.4278 128.801 31.9947 127.443 31.1285C126.094 30.2526 125.023 28.9678 124.229 27.2738C123.444 25.5703 123.052 23.4817 123.052 21.0082C123.052 18.4673 123.459 16.3547 124.272 14.6704C125.085 12.9764 126.166 11.7108 127.514 10.8734C128.873 10.0265 130.36 9.60298 131.977 9.60298C133.21 9.60298 134.239 9.81473 135.061 10.2382C135.894 10.6521 136.563 11.1718 137.07 11.7974C137.587 12.4134 137.979 13.0197 138.247 13.6165H138.433V2.5H144.531V32.0669H138.505V28.5154H138.247C137.96 29.1314 137.553 29.7425 137.027 30.3489C136.511 30.9456 135.836 31.4413 135.004 31.8359C134.181 32.2305 133.177 32.4278 131.991 32.4278ZM133.928 27.5337C134.913 27.5337 135.745 27.2642 136.424 26.7252C137.113 26.1766 137.639 25.4115 138.003 24.4297C138.376 23.448 138.562 22.2979 138.562 20.9793C138.562 19.6607 138.381 18.5154 138.017 17.5433C137.654 16.5712 137.127 15.8205 136.439 15.2911C135.75 14.7618 134.913 14.4971 133.928 14.4971C132.924 14.4971 132.077 14.7714 131.388 15.32C130.7 15.8686 130.178 16.629 129.824 17.6011C129.47 18.5731 129.294 19.6992 129.294 20.9793C129.294 22.269 129.47 23.4095 129.824 24.4009C130.188 25.3826 130.709 26.1525 131.388 26.7108C132.077 27.2594 132.924 27.5337 133.928 27.5337Z" fill="white"/>
<path d="M155.841 32.4856C154.435 32.4856 153.182 32.2401 152.082 31.7493C150.982 31.2488 150.111 30.5125 149.47 29.5404C148.839 28.5587 148.523 27.3364 148.523 25.8734C148.523 24.6415 148.748 23.6068 149.198 22.7695C149.647 21.9321 150.259 21.2584 151.034 20.7483C151.809 20.2382 152.689 19.8532 153.674 19.5934C154.669 19.3335 155.712 19.1506 156.802 19.0448C158.084 18.91 159.117 18.7849 159.901 18.6694C160.686 18.5443 161.255 18.3614 161.609 18.1208C161.963 17.8802 162.139 17.5241 162.139 17.0525V16.9658C162.139 16.0515 161.853 15.3441 161.279 14.8436C160.714 14.3431 159.911 14.0929 158.868 14.0929C157.768 14.0929 156.893 14.3383 156.242 14.8292C155.592 15.3104 155.162 15.9167 154.951 16.6482L149.298 16.1862C149.585 14.8388 150.149 13.6742 150.991 12.6925C151.833 11.7012 152.919 10.9408 154.248 10.4115C155.587 9.87247 157.137 9.60298 158.897 9.60298C160.121 9.60298 161.293 9.74735 162.412 10.0361C163.541 10.3248 164.54 10.7724 165.411 11.3787C166.291 11.9851 166.984 12.7647 167.491 13.7175C167.998 14.6607 168.252 15.7916 168.252 17.1102V32.0669H162.455V28.9918H162.283C161.929 29.6848 161.456 30.296 160.863 30.8253C160.269 31.345 159.557 31.7541 158.725 32.0525C157.893 32.3412 156.931 32.4856 155.841 32.4856ZM157.591 28.2411C158.49 28.2411 159.284 28.063 159.973 27.7069C160.662 27.3412 161.202 26.8503 161.594 26.2344C161.986 25.6184 162.183 24.9206 162.183 24.141V21.7878C161.991 21.9129 161.728 22.0284 161.393 22.1343C161.068 22.2305 160.7 22.3219 160.289 22.4086C159.877 22.4856 159.466 22.5577 159.055 22.6251C158.643 22.6829 158.27 22.7358 157.936 22.7839C157.218 22.8898 156.592 23.0582 156.056 23.2892C155.52 23.5202 155.104 23.833 154.808 24.2276C154.511 24.6126 154.363 25.0938 154.363 25.6713C154.363 26.5087 154.664 27.1487 155.267 27.5914C155.879 28.0245 156.654 28.2411 157.591 28.2411Z" fill="white"/>
<path d="M179.106 19.2469V32.0669H172.994V9.89172H178.819V13.8041H179.077C179.565 12.5144 180.383 11.4942 181.531 10.7435C182.679 9.98316 184.07 9.60298 185.706 9.60298C187.236 9.60298 188.571 9.93985 189.709 10.6136C190.847 11.2873 191.732 12.2498 192.363 13.501C192.995 14.7425 193.31 16.2247 193.31 17.9475V32.0669H187.198V19.0448C187.208 17.6877 186.863 16.629 186.165 15.8686C185.467 15.0987 184.506 14.7137 183.281 14.7137C182.459 14.7137 181.732 14.8917 181.1 15.2478C180.479 15.6039 179.991 16.1237 179.637 16.807C179.292 17.4808 179.115 18.294 179.106 19.2469Z" fill="white"/>
<path d="M208.085 32.5C205.828 32.5 203.886 32.0188 202.26 31.0563C200.643 30.0842 199.4 28.7368 198.529 27.014C197.669 25.2911 197.238 23.3085 197.238 21.0659C197.238 18.7945 197.673 16.8022 198.544 15.089C199.424 13.3662 200.672 12.0236 202.289 11.0611C203.905 10.089 205.828 9.60298 208.056 9.60298C209.979 9.60298 211.663 9.95428 213.107 10.6569C214.551 11.3595 215.694 12.346 216.536 13.6165C217.378 14.8869 217.842 16.3787 217.928 18.0919H212.16C211.997 16.9851 211.567 16.0948 210.869 15.4211C210.18 14.7377 209.276 14.3961 208.157 14.3961C207.21 14.3961 206.382 14.6559 205.675 15.1756C204.976 15.6858 204.431 16.4317 204.039 17.4134C203.647 18.3951 203.451 19.5837 203.451 20.9793C203.451 22.3941 203.642 23.5972 204.025 24.5885C204.417 25.5799 204.967 26.3354 205.675 26.8551C206.382 27.3749 207.21 27.6347 208.157 27.6347C208.855 27.6347 209.482 27.4904 210.036 27.2016C210.601 26.9129 211.065 26.4942 211.428 25.9456C211.801 25.3874 212.045 24.7185 212.16 23.9389H217.928C217.832 25.6328 217.373 27.1246 216.55 28.4143C215.737 29.6944 214.613 30.6954 213.179 31.4172C211.744 32.1391 210.046 32.5 208.085 32.5Z" fill="white"/>
<path d="M231.885 32.5C229.618 32.5 227.666 32.038 226.031 31.114C224.405 30.1805 223.152 28.8619 222.272 27.1583C221.392 25.4451 220.952 23.4192 220.952 21.0804C220.952 18.7993 221.392 16.7974 222.272 15.0746C223.152 13.3518 224.39 12.0091 225.988 11.0467C227.595 10.0842 229.479 9.60298 231.641 9.60298C233.095 9.60298 234.448 9.83879 235.701 10.3104C236.964 10.7724 238.064 11.4702 239.001 12.4038C239.948 13.3373 240.685 14.5115 241.211 15.9264C241.737 17.3316 242 18.9774 242 20.8638V22.5529H223.391V18.7416H236.246C236.246 17.8561 236.055 17.0717 235.673 16.3884C235.29 15.705 234.759 15.1708 234.08 14.7859C233.41 14.3912 232.631 14.1939 231.741 14.1939C230.813 14.1939 229.991 14.4105 229.273 14.8436C228.566 15.2671 228.011 15.8397 227.609 16.5616C227.207 17.2738 227.002 18.0679 226.992 18.9437V22.5674C226.992 23.6646 227.193 24.6126 227.595 25.4115C228.006 26.2103 228.585 26.8263 229.331 27.2594C230.077 27.6925 230.962 27.909 231.985 27.909C232.664 27.909 233.286 27.8128 233.85 27.6203C234.415 27.4278 234.898 27.1391 235.3 26.7541C235.701 26.3691 236.007 25.8975 236.218 25.3393L241.871 25.7146C241.584 27.0813 240.996 28.2748 240.106 29.295C239.226 30.3056 238.088 31.0948 236.691 31.6627C235.304 32.2209 233.702 32.5 231.885 32.5Z" fill="white"/>
</svg>
