<svg width="145" height="32" viewBox="0 0 145 32" fill="none" xmlns="http://www.w3.org/2000/svg">
<path d="M12.75 8.50158C9.06563 8.50158 5.94844 10.9156 4.88906 14.2438C6.46406 13.4469 8.24063 13.0016 10.125 13.0016H14.25C14.6625 13.0016 15 13.3391 15 13.7516C15 14.1641 14.6625 14.5016 14.25 14.5016H13.5H10.125C9.34688 14.5016 8.59219 14.5906 7.86563 14.7547C6.65156 15.0313 5.52187 15.5235 4.51875 16.1938C1.79531 18.0078 0 21.1063 0 24.6266V25.3766C0 26 0.501562 26.5016 1.125 26.5016C1.74844 26.5016 2.25 26 2.25 25.3766V24.6266C2.25 22.3438 3.22031 20.2906 4.77188 18.8516C5.7 22.3906 8.92031 25.0016 12.75 25.0016H12.7969C18.9891 24.9688 24 18.8656 24 11.3422C24 9.34533 23.6484 7.44689 23.0109 5.73595C22.8891 5.41251 22.4156 5.42658 22.2516 5.73126C21.3703 7.38126 19.6266 8.50158 17.625 8.50158H12.75Z" fill="#9CAF88"/>
<path d="M36.6705 7.54545L40.8892 20.8068H41.0511L45.2784 7.54545H49.3693L43.3523 25H38.5966L32.571 7.54545H36.6705ZM55.8913 25.2557C54.5447 25.2557 53.3857 24.983 52.4141 24.4375C51.4482 23.8864 50.7038 23.108 50.1811 22.1023C49.6584 21.0909 49.397 19.8949 49.397 18.5142C49.397 17.1676 49.6584 15.9858 50.1811 14.9688C50.7038 13.9517 51.4396 13.1591 52.3885 12.5909C53.343 12.0227 54.4624 11.7386 55.7464 11.7386C56.6101 11.7386 57.4141 11.8778 58.1584 12.1562C58.9084 12.429 59.5618 12.8409 60.1186 13.392C60.6811 13.9432 61.1186 14.6364 61.4311 15.4716C61.7436 16.3011 61.8999 17.2727 61.8999 18.3864V19.3835H50.8459V17.1335H58.4822C58.4822 16.6108 58.3686 16.1477 58.1413 15.7443C57.9141 15.3409 57.5987 15.0256 57.1953 14.7983C56.7976 14.5653 56.3345 14.4489 55.8061 14.4489C55.255 14.4489 54.7663 14.5767 54.3402 14.8324C53.9197 15.0824 53.5902 15.4205 53.3516 15.8466C53.1129 16.267 52.9908 16.7358 52.9851 17.2528V19.392C52.9851 20.0398 53.1044 20.5994 53.343 21.071C53.5874 21.5426 53.9311 21.9062 54.3743 22.1619C54.8175 22.4176 55.343 22.5455 55.951 22.5455C56.3544 22.5455 56.7237 22.4886 57.0589 22.375C57.3942 22.2614 57.6811 22.0909 57.9197 21.8636C58.1584 21.6364 58.3402 21.358 58.4652 21.0284L61.8232 21.25C61.6527 22.0568 61.3033 22.7614 60.7749 23.3636C60.2521 23.9602 59.576 24.4261 58.7464 24.7614C57.9226 25.0909 56.9709 25.2557 55.8913 25.2557ZM64.2692 25V11.9091H67.7891V14.1932H67.9254C68.1641 13.3807 68.5646 12.767 69.1271 12.3523C69.6896 11.9318 70.3374 11.7216 71.0703 11.7216C71.2521 11.7216 71.4482 11.733 71.6584 11.7557C71.8686 11.7784 72.0533 11.8097 72.2124 11.8494V15.071C72.0419 15.0199 71.8061 14.9744 71.505 14.9347C71.2038 14.8949 70.9283 14.875 70.6783 14.875C70.1442 14.875 69.6669 14.9915 69.2464 15.2244C68.8317 15.4517 68.5021 15.7699 68.2578 16.179C68.0192 16.5881 67.8999 17.0597 67.8999 17.5938V25H64.2692ZM78.304 25.2131C77.3097 25.2131 76.4091 24.9574 75.6023 24.446C74.8011 23.929 74.1648 23.1705 73.6932 22.1705C73.2273 21.1648 72.9943 19.9318 72.9943 18.4716C72.9943 16.9716 73.2358 15.7244 73.7188 14.7301C74.2017 13.7301 74.8438 12.983 75.6449 12.4886C76.4517 11.9886 77.3352 11.7386 78.2955 11.7386C79.0284 11.7386 79.6392 11.8636 80.1278 12.1136C80.6222 12.358 81.0199 12.6648 81.321 13.0341C81.6278 13.3977 81.8608 13.7557 82.0199 14.108H82.1307V7.54545H85.7528V25H82.1733V22.9034H82.0199C81.8494 23.267 81.608 23.6278 81.2955 23.9858C80.9886 24.3381 80.5881 24.6307 80.0938 24.8636C79.6051 25.0966 79.0085 25.2131 78.304 25.2131ZM79.4545 22.3239C80.0398 22.3239 80.5341 22.1648 80.9375 21.8466C81.3466 21.5227 81.6591 21.071 81.875 20.4915C82.0966 19.9119 82.2074 19.233 82.2074 18.4545C82.2074 17.6761 82.0994 17 81.8835 16.4261C81.6676 15.8523 81.3551 15.4091 80.946 15.0966C80.5369 14.7841 80.0398 14.6278 79.4545 14.6278C78.858 14.6278 78.3551 14.7898 77.946 15.1136C77.5369 15.4375 77.2273 15.8864 77.017 16.4602C76.8068 17.0341 76.7017 17.6989 76.7017 18.4545C76.7017 19.2159 76.8068 19.8892 77.017 20.4744C77.233 21.054 77.5426 21.5085 77.946 21.8381C78.3551 22.1619 78.858 22.3239 79.4545 22.3239ZM92.4709 25.2472C91.6357 25.2472 90.8913 25.1023 90.2379 24.8125C89.5845 24.517 89.0675 24.0824 88.6868 23.5085C88.3118 22.929 88.1243 22.2074 88.1243 21.3438C88.1243 20.6165 88.2578 20.0057 88.5249 19.5114C88.7919 19.017 89.1555 18.6193 89.6158 18.3182C90.076 18.017 90.5987 17.7898 91.1839 17.6364C91.7749 17.483 92.3942 17.375 93.0419 17.3125C93.8033 17.233 94.4169 17.1591 94.8828 17.0909C95.3487 17.017 95.6868 16.9091 95.897 16.767C96.1072 16.625 96.2124 16.4148 96.2124 16.1364V16.0852C96.2124 15.5455 96.0419 15.1278 95.701 14.8324C95.3658 14.5369 94.8885 14.3892 94.2692 14.3892C93.6158 14.3892 93.0959 14.5341 92.7095 14.8239C92.3232 15.108 92.0675 15.4659 91.9425 15.8977L88.5845 15.625C88.755 14.8295 89.0902 14.142 89.5902 13.5625C90.0902 12.9773 90.7351 12.5284 91.5249 12.2159C92.3203 11.8977 93.2408 11.7386 94.2862 11.7386C95.0135 11.7386 95.7095 11.8239 96.3743 11.9943C97.0447 12.1648 97.6385 12.429 98.1555 12.7869C98.6783 13.1449 99.0902 13.6051 99.3913 14.1676C99.6925 14.7244 99.843 15.392 99.843 16.1705V25H96.3999V23.1847H96.2976C96.0874 23.5938 95.8061 23.9545 95.4538 24.267C95.1016 24.5739 94.6783 24.8153 94.1839 24.9915C93.6896 25.1619 93.1186 25.2472 92.4709 25.2472ZM93.5107 22.7415C94.0447 22.7415 94.5163 22.6364 94.9254 22.4261C95.3345 22.2102 95.6555 21.9205 95.8885 21.5568C96.1214 21.1932 96.2379 20.7812 96.2379 20.321V18.9318C96.1243 19.0057 95.968 19.0739 95.7692 19.1364C95.576 19.1932 95.3572 19.2472 95.1129 19.2983C94.8686 19.3437 94.6243 19.3864 94.38 19.4261C94.1357 19.4602 93.9141 19.4915 93.7152 19.5199C93.2891 19.5824 92.9169 19.6818 92.5987 19.8182C92.2805 19.9545 92.0334 20.1392 91.8572 20.3722C91.6811 20.5994 91.593 20.8835 91.593 21.2244C91.593 21.7188 91.772 22.0966 92.13 22.358C92.4936 22.6136 92.9538 22.7415 93.5107 22.7415ZM106.29 17.4318V25H102.66V11.9091H106.12V14.2188H106.273C106.563 13.4574 107.049 12.8551 107.731 12.4119C108.413 11.9631 109.239 11.7386 110.211 11.7386C111.12 11.7386 111.913 11.9375 112.589 12.3352C113.265 12.733 113.79 13.3011 114.165 14.0398C114.54 14.7727 114.728 15.6477 114.728 16.6648V25H111.097V17.3125C111.103 16.5114 110.898 15.8864 110.484 15.4375C110.069 14.983 109.498 14.7557 108.771 14.7557C108.282 14.7557 107.85 14.8608 107.475 15.071C107.106 15.2812 106.816 15.5881 106.606 15.9915C106.401 16.3892 106.296 16.8693 106.29 17.4318ZM123.504 25.2557C122.163 25.2557 121.01 24.9716 120.044 24.4034C119.084 23.8295 118.345 23.0341 117.828 22.017C117.317 21 117.061 19.8295 117.061 18.5057C117.061 17.1648 117.32 15.9886 117.837 14.9773C118.359 13.9602 119.101 13.1676 120.061 12.5994C121.021 12.0256 122.163 11.7386 123.487 11.7386C124.629 11.7386 125.629 11.946 126.487 12.3608C127.345 12.7756 128.024 13.358 128.524 14.108C129.024 14.858 129.3 15.7386 129.351 16.75H125.925C125.828 16.0966 125.572 15.571 125.158 15.1733C124.749 14.7699 124.212 14.5682 123.547 14.5682C122.984 14.5682 122.493 14.7216 122.072 15.0284C121.658 15.3295 121.334 15.7699 121.101 16.3494C120.868 16.929 120.751 17.6307 120.751 18.4545C120.751 19.2898 120.865 20 121.092 20.5852C121.325 21.1705 121.652 21.6165 122.072 21.9233C122.493 22.2301 122.984 22.3835 123.547 22.3835C123.962 22.3835 124.334 22.2983 124.663 22.1278C124.999 21.9574 125.274 21.7102 125.49 21.3864C125.712 21.0568 125.857 20.6619 125.925 20.2017H129.351C129.294 21.2017 129.021 22.0824 128.533 22.8438C128.05 23.5994 127.382 24.1903 126.53 24.6165C125.678 25.0426 124.669 25.2557 123.504 25.2557ZM137.641 25.2557C136.295 25.2557 135.136 24.983 134.164 24.4375C133.198 23.8864 132.454 23.108 131.931 22.1023C131.408 21.0909 131.147 19.8949 131.147 18.5142C131.147 17.1676 131.408 15.9858 131.931 14.9688C132.454 13.9517 133.19 13.1591 134.138 12.5909C135.093 12.0227 136.212 11.7386 137.496 11.7386C138.36 11.7386 139.164 11.8778 139.908 12.1562C140.658 12.429 141.312 12.8409 141.869 13.392C142.431 13.9432 142.869 14.6364 143.181 15.4716C143.494 16.3011 143.65 17.2727 143.65 18.3864V19.3835H132.596V17.1335H140.232C140.232 16.6108 140.119 16.1477 139.891 15.7443C139.664 15.3409 139.349 15.0256 138.945 14.7983C138.548 14.5653 138.085 14.4489 137.556 14.4489C137.005 14.4489 136.516 14.5767 136.09 14.8324C135.67 15.0824 135.34 15.4205 135.102 15.8466C134.863 16.267 134.741 16.7358 134.735 17.2528V19.392C134.735 20.0398 134.854 20.5994 135.093 21.071C135.337 21.5426 135.681 21.9062 136.124 22.1619C136.567 22.4176 137.093 22.5455 137.701 22.5455C138.104 22.5455 138.474 22.4886 138.809 22.375C139.144 22.2614 139.431 22.0909 139.67 21.8636C139.908 21.6364 140.09 21.358 140.215 21.0284L143.573 21.25C143.403 22.0568 143.053 22.7614 142.525 23.3636C142.002 23.9602 141.326 24.4261 140.496 24.7614C139.673 25.0909 138.721 25.2557 137.641 25.2557Z" fill="#4A5D23"/>
</svg>
