<svg width="48" height="48" viewBox="0 0 48 48" fill="none" xmlns="http://www.w3.org/2000/svg">
<rect width="48" height="48" rx="24" fill="#73A242"/>
<path d="M33.6875 24.0586C33.6875 18.707 29.3516 14.3711 24 14.3711C18.6484 14.3711 14.3125 18.707 14.3125 24.0586C14.3125 28.8938 17.8551 32.9016 22.4863 33.6289V26.859H20.0254V24.0586H22.4863V21.9242C22.4863 19.4965 23.9316 18.1555 26.1453 18.1555C27.2055 18.1555 28.3141 18.3445 28.3141 18.3445V20.7273H27.0922C25.8891 20.7273 25.5137 21.4742 25.5137 22.2402V24.0586H28.2004L27.7707 26.859H25.5137V33.6289C30.1449 32.9016 33.6875 28.8938 33.6875 24.0586Z" fill="white"/>
</svg>
