<svg width="48" height="48" viewBox="0 0 48 48" fill="none" xmlns="http://www.w3.org/2000/svg">
<rect width="48" height="48" rx="24" fill="#73A242"/>
<g clip-path="url(#clip0_2199_3524)">
<path d="M24.0039 19.5078C21.5195 19.5078 19.5156 21.5117 19.5156 23.9961C19.5156 26.4805 21.5195 28.4844 24.0039 28.4844C26.4883 28.4844 28.4922 26.4805 28.4922 23.9961C28.4922 21.5117 26.4883 19.5078 24.0039 19.5078ZM24.0039 26.9141C22.3984 26.9141 21.0859 25.6055 21.0859 23.9961C21.0859 22.3867 22.3945 21.0781 24.0039 21.0781C25.6133 21.0781 26.9219 22.3867 26.9219 23.9961C26.9219 25.6055 25.6094 26.9141 24.0039 26.9141ZM29.7227 19.3242C29.7227 19.9062 29.2539 20.3711 28.6758 20.3711C28.0938 20.3711 27.6289 19.9023 27.6289 19.3242C27.6289 18.7461 28.0977 18.2773 28.6758 18.2773C29.2539 18.2773 29.7227 18.7461 29.7227 19.3242ZM32.6953 20.3867C32.6289 18.9844 32.3086 17.7422 31.2812 16.7187C30.2578 15.6953 29.0156 15.375 27.6133 15.3047C26.168 15.2227 21.8359 15.2227 20.3906 15.3047C18.9922 15.3711 17.75 15.6914 16.7227 16.7148C15.6953 17.7383 15.3789 18.9805 15.3086 20.3828C15.2266 21.8281 15.2266 26.1602 15.3086 27.6055C15.375 29.0078 15.6953 30.25 16.7227 31.2734C17.75 32.2969 18.9883 32.6172 20.3906 32.6875C21.8359 32.7695 26.168 32.7695 27.6133 32.6875C29.0156 32.6211 30.2578 32.3008 31.2812 31.2734C32.3047 30.25 32.625 29.0078 32.6953 27.6055C32.7773 26.1602 32.7773 21.832 32.6953 20.3867ZM30.8281 29.1562C30.5234 29.9219 29.9336 30.5117 29.1641 30.8203C28.0117 31.2773 25.2773 31.1719 24.0039 31.1719C22.7305 31.1719 19.9922 31.2734 18.8438 30.8203C18.0781 30.5156 17.4883 29.9258 17.1797 29.1562C16.7227 28.0039 16.8281 25.2695 16.8281 23.9961C16.8281 22.7227 16.7266 19.9844 17.1797 18.8359C17.4844 18.0703 18.0742 17.4805 18.8438 17.1719C19.9961 16.7148 22.7305 16.8203 24.0039 16.8203C25.2773 16.8203 28.0156 16.7187 29.1641 17.1719C29.9297 17.4766 30.5195 18.0664 30.8281 18.8359C31.2852 19.9883 31.1797 22.7227 31.1797 23.9961C31.1797 25.2695 31.2852 28.0078 30.8281 29.1562Z" fill="white"/>
</g>
<defs>
<clipPath id="clip0_2199_3524">
<path d="M15.25 14H32.75V34H15.25V14Z" fill="white"/>
</clipPath>
</defs>
</svg>
