<svg width="26" height="26" viewBox="0 0 26 26" fill="none" xmlns="http://www.w3.org/2000/svg">
<circle cx="13" cy="13" r="13" fill="#73A242"/>
<path d="M13 5C8.58867 5 5 8.58867 5 13C5 17.4113 8.58867 21 13 21C17.4113 21 21 17.4113 21 13C21 8.58867 17.4113 5 13 5ZM10.3333 19.1093V19C10.3333 17.5293 11.5293 16.3333 13 16.3333C14.4707 16.3333 15.6667 17.5293 15.6667 19V19.1093C14.8493 19.4673 13.948 19.6667 13 19.6667C12.052 19.6667 11.1507 19.4673 10.3333 19.1093ZM16.95 18.3673C16.646 16.4613 14.9907 15 13 15C11.0093 15 9.35467 16.4613 9.05 18.3673C7.40333 17.152 6.33333 15.1987 6.33333 13C6.33333 9.324 9.324 6.33333 13 6.33333C16.676 6.33333 19.6667 9.324 19.6667 13C19.6667 15.1987 18.5967 17.152 16.95 18.3673ZM13 8.33333C11.5293 8.33333 10.3333 9.52933 10.3333 11C10.3333 12.4707 11.5293 13.6667 13 13.6667C14.4707 13.6667 15.6667 12.4707 15.6667 11C15.6667 9.52933 14.4707 8.33333 13 8.33333ZM13 12.3333C12.2647 12.3333 11.6667 11.7353 11.6667 11C11.6667 10.2647 12.2647 9.66667 13 9.66667C13.7353 9.66667 14.3333 10.2647 14.3333 11C14.3333 11.7353 13.7353 12.3333 13 12.3333Z" fill="white"/>
</svg>
